<svg t="1603092667947" class="icon" viewBox="0 0 1024 1024" version="1.1" xmlns="http://www.w3.org/2000/svg" p-id="1112" width="200" height="200"><path d="M822.1 704.2H517.7c-3.3 0-5.9 2.7-5.9 5.9v51.4c0 3.3 2.7 5.9 5.9 5.9h304.4c3.3 0 5.9-2.7 5.9-5.9v-51.4c0-3.3-2.6-5.9-5.9-5.9zM822.1 577.9H517.7c-3.3 0-5.9 2.7-5.9 5.9v51.4c0 3.3 2.7 5.9 5.9 5.9h304.4c3.3 0 5.9-2.7 5.9-5.9v-51.4c0-3.2-2.6-5.9-5.9-5.9z" p-id="1113"></path><path d="M954.3 428.6V177.7c0-6.5-5.3-11.9-11.9-11.9H770.7c-3.3 0-5.9-2.7-5.9-5.9v-51.5c0-3.3-2.7-5.9-5.9-5.9h-51.4c-3.3 0-5.9 2.7-5.9 5.9V160c0 3.3-2.7 5.9-5.9 5.9H328.2c-3.3 0-5.9-2.7-5.9-5.9v-51.5c0-3.3-2.7-5.9-5.9-5.9H265c-3.3 0-5.9 2.7-5.9 5.9V160c0 3.3-2.7 5.9-5.9 5.9H81.3c-6.5 0-11.9 5.3-11.9 11.9v734.5c0 6.5 5.3 11.9 11.9 11.9h861.4c6.5 0 11.9-5.3 11.9-11.9V428.6h-0.3zM132.5 235c0-3.3 2.7-5.9 5.9-5.9H253c3.4 0 6 2.7 6 5.9v51.3c0 3.3 2.7 5.9 5.9 5.9h51.4c3.3 0 5.9-2.7 5.9-5.9V235c0-3.3 2.7-5.9 5.9-5.9h367.4c3.3 0 5.9 2.7 5.9 5.9v51.3c0 3.3 2.7 5.9 5.9 5.9h51.4c3.3 0 5.9-2.7 5.9-5.9V235c0-3.3 2.7-5.9 5.9-5.9H885c3.3 0 5.9 2.7 5.9 5.9v177.6c0 3.3-2.7 5.9-5.9 5.9H138.5c-3.3 0-5.9-2.7-5.9-5.9V235z m759.2 620c0 3.3-2.7 5.9-5.9 5.9H138.5c-3.3 0-5.9-2.7-5.9-5.9V487.7c0-3.3 2.7-5.9 5.9-5.9h752.6v0.4h0.6V855z" p-id="1114"></path><path d="M437.3 569.1c-2.1-2.6-5.7-3-8.3-1L289.6 678.5c-2.6 2-6.3 1.6-8.4-1l-32-40.5c-2.1-2.6-5.7-3-8.3-1l-40.3 31.9c-2.6 2.1-3 5.7-1 8.3l74.9 94.6 0.1 0.1 193.7-153.2c2.6-2.1 3-5.7 1-8.3l-32-40.3z" p-id="1115"></path></svg>